<svg width="44" height="50" viewBox="0 0 44 50" fill="none" xmlns="http://www.w3.org/2000/svg">
<path d="M0.75 27.5808C0.75 39.2093 10.2047 48.6641 21.8333 48.6641C33.4619 48.6641 42.9166 39.2093 42.9166 27.5808C42.9166 15.9522 33.4619 6.49744 21.8333 6.49744C10.2047 6.49744 0.75 15.9522 0.75 27.5808ZM2.69737 27.5807C2.69737 17.0312 11.2838 8.44475 21.8333 8.44475C32.3828 8.44475 40.9693 17.0312 40.9693 27.5807C40.9693 38.1302 32.3828 46.7166 21.8333 46.7166C11.2838 46.7166 2.69737 38.1302 2.69737 27.5807ZM20.8596 27.0062C20.8596 27.5342 21.3053 27.9799 21.8333 27.9799C22.3614 27.9799 22.807 27.5342 22.807 27.0062V15.515C22.807 14.9869 22.3614 14.5413 21.8333 14.5413C21.3053 14.5413 20.8596 14.9869 20.8596 15.515V27.0062ZM13.9649 1.72544C13.9649 2.25349 14.4105 2.69912 14.9386 2.69912H28.728C29.2561 2.69912 29.7017 2.25349 29.7017 1.72544C29.7017 1.19739 29.2561 0.751755 28.728 0.751755H14.9386C14.4105 0.751755 13.9649 1.19739 13.9649 1.72544Z" fill="#F4F4F8" stroke="#F4F4F8" stroke-width="1.5"/>
</svg>
