<svg width="54" height="54" viewBox="0 0 54 54" fill="none" xmlns="http://www.w3.org/2000/svg">
<path d="M16.9647 5.61328H6.49118C4.56305 5.61328 3 7.17633 3 9.10446V19.578C3 21.5061 4.56305 23.0692 6.49118 23.0692H16.9647C18.8928 23.0692 20.4559 21.5061 20.4559 19.578V9.10446C20.4559 7.17633 18.8928 5.61328 16.9647 5.61328Z" stroke="#F4F4F8" stroke-width="5" stroke-linecap="round" stroke-linejoin="round"/>
<path d="M37.1878 4.46921L29.7819 11.8751C28.4185 13.2385 28.4185 15.449 29.7819 16.8124L37.1878 24.2183C38.5512 25.5817 40.7616 25.5817 42.125 24.2183L49.5309 16.8124C50.8943 15.449 50.8943 13.2385 49.5309 11.8751L42.125 4.46921C40.7616 3.10583 38.5512 3.10583 37.1878 4.46921Z" stroke="#F4F4F8" stroke-width="5" stroke-linecap="round" stroke-linejoin="round"/>
<path d="M16.9647 33.543H6.49118C4.56305 33.543 3 35.106 3 37.0341V47.5077C3 49.4358 4.56305 50.9988 6.49118 50.9988H16.9647C18.8928 50.9988 20.4559 49.4358 20.4559 47.5077V37.0341C20.4559 35.106 18.8928 33.543 16.9647 33.543Z" stroke="#F4F4F8" stroke-width="5" stroke-linecap="round" stroke-linejoin="round"/>
<path d="M44.8941 33.543H34.4206C32.4925 33.543 30.9294 35.106 30.9294 37.0341V47.5077C30.9294 49.4358 32.4925 50.9988 34.4206 50.9988H44.8941C46.8223 50.9988 48.3853 49.4358 48.3853 47.5077V37.0341C48.3853 35.106 46.8223 33.543 44.8941 33.543Z" stroke="#F4F4F8" stroke-width="5" stroke-linecap="round" stroke-linejoin="round"/>
</svg>
