<svg width="50" height="50" viewBox="0 0 50 50" fill="none" xmlns="http://www.w3.org/2000/svg">
<path d="M21.419 39.8154C21.0697 39.8154 20.7438 39.7223 20.4411 39.5131C19.9521 39.1876 19.6727 38.6528 19.6727 38.0715C19.6727 37.7227 19.6494 37.3507 19.6029 36.9787C19.3934 35.3279 18.6483 33.8862 17.391 32.6307C16.1338 31.3751 14.5738 30.5845 12.8974 30.3752C12.618 30.352 12.2222 30.3288 11.8497 30.352C11.2443 30.3985 10.6855 30.1427 10.3363 29.6544C9.98706 29.1894 9.89391 28.5616 10.0802 28.0036C10.4295 27.0503 10.9417 26.19 11.547 25.4924L15.1326 20.9817C21.3026 13.2855 33.8055 4.03138 42.9557 0.357668C44.9115 -0.386361 46.9604 0.0553827 48.3806 1.45047C49.8475 2.91531 50.2899 5.00795 49.5215 6.91459C45.8428 16.0757 36.5995 28.5384 28.8928 34.7001L24.3061 38.3738C23.4446 39.0016 22.7461 39.3968 22.0476 39.6759C21.8614 39.7689 21.6285 39.8154 21.419 39.8154V39.8154ZM14.6902 27.1898C16.646 27.7014 18.3922 28.7244 19.859 30.1892C21.3259 31.6308 22.3038 33.3049 22.7927 35.1651L26.7275 32.0029C34.0384 26.1668 42.8161 14.3318 46.2852 5.63574C46.6345 4.77541 46.1455 4.17089 45.9127 3.96163C45.7497 3.79885 45.1443 3.28736 44.213 3.63613C35.5517 7.12385 23.7007 15.8896 17.8334 23.1906L14.6902 27.1899V27.1898ZM6.63311 50C4.88689 50 3.21051 49.3025 1.95323 48.0469C0.50971 46.6053 -0.188779 44.6056 0.0440142 42.5595L0.672654 36.8397C1.27799 31.1663 5.93462 26.9578 11.7088 26.8415C12.1512 26.8183 12.7332 26.8415 13.2688 26.888C15.8066 27.2135 18.065 28.3529 19.8811 30.1665C21.6739 31.9568 22.745 34.096 23.0709 36.4909C23.1407 37.0024 23.1873 37.5604 23.1873 38.0487C23.1873 41.1179 21.9999 43.9778 19.8578 46.1402C18.065 47.9074 15.76 49.0002 13.1523 49.3257L7.40139 49.9535C7.1453 49.9767 6.88915 49.9999 6.63305 49.9999L6.63311 50ZM12.1512 30.3525C12.058 30.3525 11.9416 30.3525 11.8485 30.3525C8.33273 30.4223 4.60749 32.8172 4.1418 37.2349L3.51316 42.9548C3.39676 43.9314 3.746 44.8847 4.42119 45.5822C5.09638 46.2565 6.05102 46.6052 7.0056 46.489L12.7332 45.8612C14.526 45.6287 16.1325 44.8847 17.3432 43.6756C18.8334 42.1874 19.6715 40.1878 19.6715 38.0487C19.6715 37.6999 19.6482 37.3279 19.6017 36.9559C19.3922 35.3051 18.6471 33.8635 17.3898 32.6079C16.1326 31.3523 14.5726 30.5617 12.8962 30.3525C12.71 30.3525 12.4306 30.3525 12.1512 30.3525V30.3525ZM30.2896 32.4919C29.335 32.4919 28.5433 31.7013 28.5433 30.748C28.5433 25.6326 24.3757 21.4939 19.2766 21.4939C18.322 21.4939 17.5304 20.7034 17.5304 19.7501C17.5304 18.7969 18.2987 18.0063 19.2533 18.0063C26.2849 18.0063 32.0125 23.7261 32.0125 30.748C32.0358 31.7246 31.2441 32.4919 30.2896 32.4919ZM33.6437 49.9537C31.4784 49.9537 29.313 48.9307 27.2409 46.8613C26.5657 46.187 26.5657 45.0709 27.2409 44.3966C27.9161 43.7223 29.0336 43.7223 29.7089 44.3966C32.4563 47.1403 34.8079 47.1403 37.5553 44.3966L44.447 37.5142C47.2177 34.7473 47.2177 32.3988 44.447 29.6552L42.7241 27.9578C42.0489 27.2835 42.0256 26.1675 42.7008 25.4931C43.376 24.7956 44.4935 24.7956 45.1688 25.4699L46.8917 27.1672C51.0361 31.306 51.0361 35.8401 46.8917 39.9788L40 46.8612C37.9744 48.9074 35.809 49.9537 33.6437 49.9537L33.6437 49.9537ZM4.37557 23.2833C3.93318 23.2833 3.46754 23.1206 3.14159 22.7718C-0.956244 18.6562 -0.956244 14.0989 3.14159 9.9834L10.0333 3.10098C14.1311 -0.991316 18.7411 -0.991316 22.839 3.10098L24.562 4.82157C25.2371 5.49585 25.2371 6.61192 24.562 7.28625C23.8868 7.96058 22.7692 7.96052 22.0939 7.28625L20.3477 5.56566C17.6003 2.82196 15.2254 2.82196 12.5013 5.56566L5.60955 12.4481C2.86214 15.215 2.86214 17.5634 5.60955 20.3303C6.28474 21.0047 6.28474 22.1208 5.60955 22.7951C5.26031 23.1206 4.81791 23.2833 4.37557 23.2833V23.2833ZM14.7142 16.4015C14.2718 16.4015 13.8295 16.2387 13.4803 15.8899C12.8051 15.2156 12.8051 14.0996 13.4803 13.4252L22.0949 4.82217C22.7701 4.1479 23.8876 4.1479 24.5629 4.82217C25.2381 5.49645 25.2381 6.61252 24.5629 7.28685L15.9483 15.8899C15.599 16.2387 15.1566 16.4015 14.7143 16.4015H14.7142ZM37.0877 35.3053C36.6453 35.3053 36.203 35.1425 35.8537 34.7938C35.1785 34.1195 35.1785 33.0034 35.8537 32.3291L42.7455 25.4467C43.4207 24.7724 44.5382 24.7724 45.2135 25.4467C45.8887 26.1209 45.8887 27.237 45.2135 27.9113L38.3217 34.7938C37.9958 35.1425 37.5534 35.3053 37.0878 35.3053H37.0877Z" fill="#F6EBDD"/>
</svg>
